<svg width="128" height="34" viewBox="0 0 128 34" fill="none" xmlns="http://www.w3.org/2000/svg">
<path d="M0.968 0.399998H8.936C11.656 0.399998 13.64 1.04 14.888 2.32C16.136 3.568 16.76 5.504 16.76 8.128V9.472C16.76 11.2 16.472 12.608 15.896 13.696C15.352 14.784 14.504 15.568 13.352 16.048V16.144C15.976 17.04 17.288 19.376 17.288 23.152V26.032C17.288 28.624 16.6 30.608 15.224 31.984C13.88 33.328 11.896 34 9.272 34H0.968V0.399998ZM8.312 14.08C9.368 14.08 10.152 13.808 10.664 13.264C11.208 12.72 11.48 11.808 11.48 10.528V8.656C11.48 7.44 11.256 6.56 10.808 6.016C10.392 5.472 9.72 5.2 8.792 5.2H6.248V14.08H8.312ZM9.272 29.2C10.2 29.2 10.888 28.96 11.336 28.48C11.784 27.968 12.008 27.104 12.008 25.888V22.96C12.008 21.424 11.736 20.368 11.192 19.792C10.68 19.184 9.816 18.88 8.6 18.88H6.248V29.2H9.272ZM20.3743 0.399998H28.1983C30.9183 0.399998 32.9023 1.04 34.1503 2.32C35.3983 3.568 36.0223 5.504 36.0223 8.128V10.192C36.0223 13.68 34.8703 15.888 32.5663 16.816V16.912C33.8463 17.296 34.7423 18.08 35.2543 19.264C35.7983 20.448 36.0703 22.032 36.0703 24.016V29.92C36.0703 30.88 36.1023 31.664 36.1663 32.272C36.2303 32.848 36.3903 33.424 36.6463 34H31.2703C31.0783 33.456 30.9503 32.944 30.8863 32.464C30.8223 31.984 30.7903 31.12 30.7903 29.872V23.728C30.7903 22.192 30.5343 21.12 30.0223 20.512C29.5423 19.904 28.6943 19.6 27.4783 19.6H25.6543V34H20.3743V0.399998ZM27.5743 14.8C28.6303 14.8 29.4143 14.528 29.9263 13.984C30.4703 13.44 30.7422 12.528 30.7422 11.248V8.656C30.7422 7.44 30.5183 6.56 30.0703 6.016C29.6543 5.472 28.9823 5.2 28.0543 5.2H25.6543V14.8H27.5743ZM43.8136 0.399998H50.9656L56.4376 34H51.1576L50.1976 27.328V27.424H44.1976L43.2376 34H38.3416L43.8136 0.399998ZM49.5736 22.864L47.2216 6.256H47.1256L44.8216 22.864H49.5736ZM58.9993 0.399998H65.6233L70.7593 20.512H70.8553V0.399998H75.5593V34H70.1353L63.7993 9.472H63.7033V34H58.9993V0.399998ZM79.4836 0.399998H87.5476C90.1716 0.399998 92.1396 1.104 93.4516 2.512C94.7636 3.92 95.4196 5.984 95.4196 8.704V25.696C95.4196 28.416 94.7636 30.48 93.4516 31.888C92.1396 33.296 90.1716 34 87.5476 34H79.4836V0.399998ZM87.4516 29.2C88.3156 29.2 88.9716 28.944 89.4196 28.432C89.8996 27.92 90.1396 27.088 90.1396 25.936V8.464C90.1396 7.312 89.8996 6.48 89.4196 5.968C88.9716 5.456 88.3156 5.2 87.4516 5.2H84.7636V29.2H87.4516ZM98.9836 0.399998H104.264V29.2H112.952V34H98.9836V0.399998ZM116.113 19.696L109.729 0.399998H115.345L118.945 12.736H119.041L122.641 0.399998H127.777L121.393 19.696V34H116.113V19.696Z" fill="#DC0000"/>
</svg>
